# xmcd CD database file
#
# Track frame offsets:
#	150
#	12262
#	26885
#	45375
#	62475
#	77000
#	93800
#	106920
#	120485
#	134290
#	150800
#	170125
#
# Disc length: 2507 seconds
#
# Revision: 0
# Processed by: cddbd v1.5.2PL0 Copyright (c) Steve Scherf et al.
# Submitted via: CDex 1.51
#
DISCID=8509c90c
DTITLE=Dallas Wayne and The Dimlights - Lucky 13
DYEAR=1992
DGENRE=Country
TTITLE0=Lucky 13
TTITLE1=Chain Gang
TTITLE2=Sleep With One Eye Open
TTITLE3=If I'd Been You
TTITLE4=No One To Talk To (But The Blues)
TTITLE5=Girl At The Crossroads Bar
TTITLE6=Hank Drank
TTITLE7=Don't Just Stand There
TTITLE8=I Need A Girlfriend
TTITLE9=That's What I Don't Want No More Of
TTITLE10=If It's All The Same To You
TTITLE11=I Can't Get Enough
EXTD=YEAR: 1992
EXTT0=
EXTT1=
EXTT2=
EXTT3=
EXTT4=
EXTT5=
EXTT6=
EXTT7=
EXTT8=
EXTT9=
EXTT10=
EXTT11=
PLAYORDER=
